<svg width="22" height="22" viewBox="0 0 22 22" fill="none" xmlns="http://www.w3.org/2000/svg">
<path d="M19.0962 0.962594L0.820334 19.2385C0.399227 19.6596 0.312706 20.2539 0.625509 20.5667C0.938311 20.8795 1.53257 20.793 1.95368 20.3718L20.2296 2.09594C20.6507 1.67483 20.7372 1.08057 20.4244 0.767768C20.1116 0.454965 19.5174 0.541486 19.0962 0.962594Z" fill="#E5E5E5"/>
<path d="M20.4283 19.0374L2.15237 0.761496C1.73126 0.340389 1.137 0.25387 0.824194 0.566675C0.51139 0.879479 0.597908 1.47374 1.01902 1.89485L19.2949 20.1708C19.716 20.5919 20.3103 20.6784 20.6231 20.3656C20.9359 20.0528 20.8494 19.4585 20.4283 19.0374Z" fill="#E5E5E5"/>
</svg>
