<svg width="32" height="32" viewBox="0 0 32 32" fill="none" xmlns="http://www.w3.org/2000/svg">
<g clip-path="url(#clip0)">
<path d="M8.22226 19.776L9.48297 20.2107C11.9254 21.0529 12.0039 24.5219 9.54839 25.441C9.54839 26.1005 9.05561 26.5176 8.51613 26.5176C7.98206 26.5176 7.48387 26.1067 7.48387 25.441C6.42929 25.0462 5.67632 24.0284 5.67632 22.8377C5.67632 22.2676 6.13845 21.8054 6.70858 21.8054C7.27871 21.8054 7.74084 22.2676 7.74084 22.8377C7.74084 23.2315 8.06129 23.552 8.4551 23.552H8.5771C9.38303 23.552 9.56613 22.4232 8.80994 22.1624L7.54923 21.7277C5.10684 20.8856 5.02839 17.4166 7.48387 16.4975C7.48387 15.838 7.97664 15.4209 8.51613 15.4209C9.05019 15.4209 9.54839 15.8318 9.54839 16.4975C10.603 16.8923 11.3559 17.9101 11.3559 19.1008C11.3559 19.6709 10.8938 20.1331 10.3237 20.1331C9.75355 20.1331 9.29142 19.6709 9.29142 19.1008C9.29142 18.707 8.97097 18.3865 8.57716 18.3865H8.45516C7.64923 18.3865 7.46613 19.5153 8.22226 19.776ZM17.0323 20.9693C17.0323 25.6651 13.2119 29.4854 8.51613 29.4854C3.82032 29.4854 0 25.6651 0 20.9693C0 16.2734 3.82032 12.4531 8.51613 12.4531C13.2119 12.4531 17.0323 16.2734 17.0323 20.9693ZM14.9677 20.9693C14.9677 17.4118 12.0736 14.5176 8.51613 14.5176C4.95864 14.5176 2.06452 17.4118 2.06452 20.9693C2.06452 24.5267 4.95864 27.4209 8.51613 27.4209C12.0736 27.4209 14.9677 24.5267 14.9677 20.9693ZM30.9677 27.4209H30.2581V10.3886C30.2581 9.81848 29.7959 9.35635 29.2258 9.35635C28.6557 9.35635 28.1935 9.81848 28.1935 10.3886V27.4209H22.9677V14.5176C22.9677 13.9475 22.5056 13.4854 21.9355 13.4854C21.3654 13.4854 20.9032 13.9475 20.9032 14.5176V27.4209H16.5161C15.946 27.4209 15.4839 27.883 15.4839 28.4531C15.4839 29.0233 15.946 29.4854 16.5161 29.4854H30.9677C31.5379 29.4854 32 29.0233 32 28.4531C32 27.883 31.5379 27.4209 30.9677 27.4209ZM15.8912 13.6347L19.5806 9.94525L21.2056 11.5702C21.6087 11.9733 22.2623 11.9733 22.6654 11.5702L28.1935 6.04196V6.51764C28.1935 7.08777 28.6557 7.5499 29.2258 7.5499C29.7959 7.5499 30.2581 7.08777 30.2581 6.51764C30.2581 3.24177 30.263 3.51984 30.2466 3.40422C30.1966 3.05203 29.9652 2.73887 29.6205 2.59616C29.3652 2.49048 29.4443 2.51764 26.2581 2.51764C25.6879 2.51764 25.2258 2.97977 25.2258 3.5499C25.2258 4.12003 25.6879 4.58216 26.2581 4.58216H26.7337L21.9355 9.38035L20.3105 7.75545C19.9074 7.35235 19.2538 7.35235 18.8507 7.75545L14.4314 12.1748C14.0282 12.5779 14.0282 13.2315 14.4314 13.6346C14.8346 14.0378 15.4881 14.0378 15.8912 13.6347Z" fill="white"/>
</g>
<defs>
<clipPath id="clip0">
<rect width="32" height="32" fill="white"/>
</clipPath>
</defs>
</svg>
