<svg width="34" height="34" viewBox="0 0 34 34" fill="none" xmlns="http://www.w3.org/2000/svg">
<path d="M9.22226 21.2615L10.483 21.6962C12.9254 22.5384 13.0039 26.0074 10.5484 26.9265C10.5484 27.586 10.0556 28.0031 9.51613 28.0031C8.98206 28.0031 8.48387 27.5922 8.48387 26.9265C7.42929 26.5317 6.67632 25.5139 6.67632 24.3232C6.67632 23.7531 7.13845 23.2909 7.70858 23.2909C8.27871 23.2909 8.74084 23.7531 8.74084 24.3232C8.74084 24.717 9.06129 25.0375 9.4551 25.0375H9.5771C10.383 25.0375 10.5661 23.9087 9.80994 23.6479L8.54923 23.2132C6.10684 22.3711 6.02839 18.9021 8.48387 17.983C8.48387 17.3235 8.97664 16.9064 9.51613 16.9064C10.0502 16.9064 10.5484 17.3173 10.5484 17.983C11.603 18.3778 12.3559 19.3956 12.3559 20.5863C12.3559 21.1564 11.8938 21.6185 11.3237 21.6185C10.7535 21.6185 10.2914 21.1564 10.2914 20.5863C10.2914 20.1925 9.97097 19.872 9.57716 19.872H9.45516C8.64923 19.872 8.46613 21.0007 9.22226 21.2615ZM18.0323 22.4547C18.0323 27.1505 14.2119 30.9709 9.51613 30.9709C4.82032 30.9709 1 27.1506 1 22.4547C1 17.7589 4.82032 13.9386 9.51613 13.9386C14.2119 13.9386 18.0323 17.7589 18.0323 22.4547ZM15.9677 22.4547C15.9677 18.8973 13.0736 16.0031 9.51613 16.0031C5.95864 16.0031 3.06452 18.8973 3.06452 22.4547C3.06452 26.0122 5.95864 28.9064 9.51613 28.9064C13.0736 28.9064 15.9677 26.0122 15.9677 22.4547ZM31.9677 28.9064H31.2581V11.8741C31.2581 11.304 30.7959 10.8418 30.2258 10.8418C29.6557 10.8418 29.1935 11.304 29.1935 11.8741V28.9064H23.9677V16.0031C23.9677 15.433 23.5056 14.9709 22.9355 14.9709C22.3654 14.9709 21.9032 15.433 21.9032 16.0031V28.9064H17.5161C16.946 28.9064 16.4839 29.3685 16.4839 29.9386C16.4839 30.5087 16.946 30.9709 17.5161 30.9709H31.9677C32.5379 30.9709 33 30.5087 33 29.9386C33 29.3685 32.5379 28.9064 31.9677 28.9064ZM16.8912 15.1202L20.5806 11.4307L22.2056 13.0556C22.6087 13.4587 23.2623 13.4587 23.6654 13.0556L29.1935 7.52745V8.00313C29.1935 8.57326 29.6557 9.03539 30.2258 9.03539C30.7959 9.03539 31.2581 8.57326 31.2581 8.00313C31.2581 4.72726 31.263 5.00532 31.2466 4.88971C31.1966 4.53752 30.9652 4.22436 30.6205 4.08165C30.3652 3.97597 30.4443 4.00313 27.2581 4.00313C26.6879 4.00313 26.2258 4.46526 26.2258 5.03539C26.2258 5.60552 26.6879 6.06765 27.2581 6.06765H27.7337L22.9355 10.8658L21.3105 9.24094C20.9074 8.83784 20.2538 8.83784 19.8507 9.24094L15.4314 13.6603C15.0282 14.0634 15.0282 14.717 15.4314 15.1201C15.8346 15.5233 16.4881 15.5233 16.8912 15.1202Z" fill="black"/>
</svg>
