<svg width="28" height="20" viewBox="0 0 28 20" fill="none" xmlns="http://www.w3.org/2000/svg">
<path d="M26.923 0.459473H1.07692C0.481383 0.459473 0 0.818497 0 1.26087C0 1.70324 0.481383 2.06226 1.07692 2.06226H26.923C27.5185 2.06226 27.9999 1.70324 27.9999 1.26087C27.9999 0.818497 27.5185 0.459473 26.923 0.459473Z" fill="#E5E5E5"/>
<path d="M26.923 9.27417H1.07692C0.481383 9.27417 0 9.63319 0 10.0756C0 10.5179 0.481383 10.877 1.07692 10.877H26.923C27.5185 10.877 27.9999 10.5179 27.9999 10.0756C27.9999 9.63319 27.5185 9.27417 26.923 9.27417Z" fill="#E5E5E5"/>
<path d="M26.923 18.0896H1.07692C0.481383 18.0896 0 18.4486 0 18.891C0 19.3334 0.481383 19.6924 1.07692 19.6924H26.923C27.5185 19.6924 27.9999 19.3334 27.9999 18.891C27.9999 18.4486 27.5185 18.0896 26.923 18.0896Z" fill="#E5E5E5"/>
</svg>
