<svg width="38" height="38" viewBox="0 0 38 38" fill="none" xmlns="http://www.w3.org/2000/svg">
<path d="M24.6629 10.1099H13.3371C11.5294 10.1099 10.0586 11.5807 10.0586 13.3884V24.7142C10.0586 26.5219 11.5294 27.9931 13.3371 27.9931H24.6629C26.4706 27.9931 27.9418 26.5223 27.9418 24.7142V13.3884C27.9418 11.5807 26.4711 10.1099 24.6629 10.1099ZM19 24.9386C15.7541 24.9386 13.1132 22.2976 13.1132 19.0513C13.1132 15.8054 15.7541 13.1645 19 13.1645C22.2463 13.1645 24.8873 15.8054 24.8873 19.0513C24.8873 22.2972 22.2459 24.9386 19 24.9386ZM25.0765 14.3816C24.3081 14.3816 23.6832 13.7568 23.6832 12.9888C23.6832 12.2208 24.3081 11.5959 25.0765 11.5959C25.8445 11.5959 26.4694 12.2208 26.4694 12.9888C26.4694 13.7568 25.8445 14.3816 25.0765 14.3816Z" fill="white"/>
<path d="M19 15.6521C17.1262 15.6521 15.6004 17.177 15.6004 19.0508C15.6004 20.9254 17.1262 22.4508 19 22.4508C20.8746 22.4508 22.3992 20.9254 22.3992 19.0508C22.3992 17.1774 20.8742 15.6521 19 15.6521Z" fill="white"/>
<path d="M19 0C8.50701 0 0 8.50701 0 19C0 29.493 8.50701 38 19 38C29.493 38 38 29.493 38 19C38 8.50701 29.493 0 19 0ZM30.429 24.7141C30.429 27.894 27.8427 30.4803 24.6629 30.4803H13.3371C10.1577 30.4803 7.57096 27.894 7.57096 24.7141V13.3884C7.57096 10.2089 10.1577 7.62218 13.3371 7.62218H24.6629C27.8427 7.62218 30.429 10.2089 30.429 13.3884V24.7141Z" fill="white"/>
</svg>
