<svg width="38" height="38" viewBox="0 0 38 38" fill="none" xmlns="http://www.w3.org/2000/svg">
<path d="M19 37.999C29.4934 37.999 38 29.4924 38 18.999C38 8.50558 29.4934 -0.00100708 19 -0.00100708C8.50659 -0.00100708 0 8.50558 0 18.999C0 29.4924 8.50659 37.999 19 37.999Z" fill="white"/>
<path d="M30.3523 20.5285V28.3618H25.8108V21.0534C25.8108 19.2184 25.1551 17.9652 23.5107 17.9652C22.2559 17.9652 21.5104 18.8089 21.1812 19.6258C21.0616 19.9178 21.0308 20.3232 21.0308 20.7327V28.3614H16.4889C16.4889 28.3614 16.5499 15.9835 16.4889 14.7023H21.0311V16.6379C21.022 16.6531 21.0091 16.668 21.001 16.6826H21.0311V16.6379C21.6347 15.7092 22.7111 14.3815 25.1242 14.3815C28.1122 14.3815 30.3523 16.3337 30.3523 20.5285ZM11.7377 8.11807C10.1842 8.11807 9.16774 9.13788 9.16774 10.4777C9.16774 11.7892 10.1547 12.8384 11.6781 12.8384H11.7076C13.2917 12.8384 14.2766 11.7892 14.2766 10.4777C14.2464 9.13788 13.2917 8.11807 11.7377 8.11807ZM9.43768 28.3618H13.9779V14.7023H9.43768V28.3618Z" fill="#111111"/>
</svg>
