<svg width="34" height="34" viewBox="0 0 34 34" fill="none" xmlns="http://www.w3.org/2000/svg">
<g clip-path="url(#clip0)">
<path d="M16.999 13.9454C15.3147 13.9454 13.9443 15.3158 13.9443 17.0001C13.9443 18.6844 15.3147 20.0548 16.999 20.0548C18.6833 20.0548 20.0537 18.6844 20.0537 17.0001C20.0537 15.3158 18.6834 13.9454 16.999 13.9454ZM16.999 18.7267C16.047 18.7267 15.2725 17.9522 15.2725 17.0001C15.2725 16.048 16.047 15.2735 16.999 15.2735C17.951 15.2735 18.7256 16.048 18.7256 17.0001C18.7256 17.9522 17.9511 18.7267 16.999 18.7267Z" fill="#A5A5A5"/>
<path d="M16.999 10.7579C13.5571 10.7579 10.7568 13.5581 10.7568 17.0001C10.7568 20.4421 13.5571 23.2423 16.999 23.2423C20.441 23.2423 23.2412 20.4421 23.2412 17.0001C23.2412 13.5581 20.441 10.7579 16.999 10.7579ZM16.999 21.9142C14.2894 21.9142 12.085 19.7097 12.085 17.0001C12.085 14.2905 14.2894 12.086 16.999 12.086C19.7087 12.086 21.9131 14.2905 21.9131 17.0001C21.9131 19.7097 19.7087 21.9142 16.999 21.9142Z" fill="#A5A5A5"/>
<path d="M33.9733 0.480284C33.8717 0.127867 33.5038 -0.0751366 33.1513 0.0260663L29.7682 1.00104C29.449 1.04945 29.2044 1.32497 29.2044 1.6576V6.3812C28.8911 6.18776 28.5371 6.05441 28.1581 5.9977C26.748 4.56672 25.1041 3.43443 23.2669 2.63198C21.2864 1.7669 19.1776 1.32822 16.9993 1.32822C12.8132 1.32822 8.87766 2.95836 5.91767 5.91841C2.95769 8.8784 1.32748 12.814 1.32748 17.0001C1.32748 19.0167 1.70308 20.9696 2.44331 22.8169C1.97076 23.0076 1.52803 23.2938 1.14553 23.6763C-0.380216 25.2021 -0.380216 27.6847 1.14553 29.2105L5.74057 33.8055C5.87026 33.9352 6.04019 34 6.21013 34C6.38006 34 6.55006 33.9352 6.67968 33.8055L9.64359 30.8416C11.8972 32.0405 14.4293 32.6719 16.9993 32.6719C20.0992 32.6719 23.0965 31.7683 25.6674 30.0586C25.9728 29.8554 26.0557 29.4432 25.8526 29.1378C25.6495 28.8324 25.2373 28.7496 24.9319 28.9526C22.5798 30.517 19.8367 31.3439 16.9993 31.3439C14.7837 31.3439 12.5995 30.8311 10.6302 29.8552L11.2748 29.2106C12.8005 27.6847 12.8005 25.2022 11.2748 23.6763C9.89706 22.2987 7.73933 22.1649 6.21019 23.2752C5.48577 22.7492 4.62016 22.5029 3.76333 22.5353C3.02861 20.7831 2.65567 18.9235 2.65567 17.0001C2.65567 9.09097 9.09022 2.65641 16.9994 2.65641C20.5509 2.65641 23.883 3.92743 26.5052 6.25782C25.5872 6.71482 24.9546 7.66264 24.9546 8.75581C24.9546 10.2937 26.2057 11.5449 27.7436 11.5449C28.577 11.5449 29.3256 11.177 29.8371 10.5958C30.8252 12.575 31.3431 14.7662 31.3431 17.0001C31.3431 19.8376 30.5162 22.5806 28.9519 24.9327C28.7488 25.2381 28.8317 25.6503 29.1371 25.8533C29.2502 25.9286 29.3779 25.9646 29.5043 25.9646C29.7191 25.9646 29.9299 25.8605 30.0578 25.6682C31.7676 23.0975 32.6712 20.1 32.6712 17.0001C32.6712 14.2005 31.9264 11.4619 30.5154 9.06327C30.5265 8.96227 30.5327 8.85981 30.5327 8.75588V2.16308L33.5192 1.30239C33.8715 1.20066 34.0748 0.832701 33.9733 0.480284ZM6.67962 24.6155C7.68759 23.6075 9.32763 23.6076 10.3355 24.6155C11.3434 25.6234 11.3434 27.2634 10.3355 28.2714L6.21006 32.3969L2.08458 28.2714C1.07667 27.2634 1.07667 25.6234 2.08458 24.6155C2.58854 24.1115 3.2506 23.8595 3.91254 23.8595C4.57448 23.8595 5.23655 24.1115 5.7405 24.6155C5.99988 24.8747 6.4203 24.8747 6.67962 24.6155ZM27.7435 10.2167C26.9379 10.2167 26.2826 9.56139 26.2826 8.75581C26.2826 7.95024 26.9379 7.29488 27.7435 7.29488C28.5491 7.29488 29.2044 7.95024 29.2044 8.75581C29.2044 9.56139 28.5491 10.2167 27.7435 10.2167Z" fill="#A5A5A5"/>
<path d="M16.999 29.5288C23.9073 29.5288 29.5277 23.9084 29.5277 17.0001C29.5277 16.6334 29.2304 16.336 28.8636 16.336C28.4969 16.336 28.1996 16.6334 28.1996 17.0001C28.1996 23.1761 23.175 28.2006 16.999 28.2006C16.6323 28.2006 16.335 28.498 16.335 28.8647C16.335 29.2314 16.6323 29.5288 16.999 29.5288Z" fill="#A5A5A5"/>
<path d="M16.335 25.7214C16.335 26.0881 16.6323 26.3855 16.999 26.3855C22.1742 26.3855 26.3844 22.1753 26.3844 17.0001C26.3844 16.6334 26.0871 16.336 25.7203 16.336C25.3536 16.336 25.0563 16.6334 25.0563 17.0001C25.0563 21.4429 21.4418 25.0574 16.999 25.0574C16.6323 25.0574 16.335 25.3547 16.335 25.7214Z" fill="#A5A5A5"/>
<path d="M27.6113 26.9484C27.4367 26.9484 27.2654 27.0189 27.1412 27.1423C27.0177 27.2665 26.9473 27.4371 26.9473 27.6125C26.9473 27.7871 27.0177 27.9584 27.1412 28.0819C27.2654 28.2055 27.436 28.2765 27.6113 28.2765C27.786 28.2765 27.9573 28.2055 28.0808 28.0819C28.2043 27.9584 28.2754 27.7871 28.2754 27.6125C28.2754 27.4371 28.2043 27.2665 28.0808 27.1423C27.9573 27.0188 27.786 26.9484 27.6113 26.9484Z" fill="#A5A5A5"/>
</g>
<defs>
<clipPath id="clip0">
<rect width="34" height="34" fill="white"/>
</clipPath>
</defs>
</svg>
