<svg width="34" height="34" viewBox="0 0 34 34" fill="none" xmlns="http://www.w3.org/2000/svg">
<g clip-path="url(#clip0)">
<path d="M16.9995 13.9453C15.3152 13.9453 13.9448 15.3157 13.9448 17C13.9448 18.6843 15.3152 20.0547 16.9995 20.0547C18.6838 20.0547 20.0542 18.6843 20.0542 17C20.0542 15.3157 18.6839 13.9453 16.9995 13.9453ZM16.9995 18.7266C16.0475 18.7266 15.2729 17.9521 15.2729 17C15.2729 16.0479 16.0475 15.2734 16.9995 15.2734C17.9515 15.2734 18.7261 16.0479 18.7261 17C18.7261 17.9521 17.9516 18.7266 16.9995 18.7266Z" fill="black"/>
<path d="M16.9995 10.7578C13.5575 10.7578 10.7573 13.558 10.7573 17C10.7573 20.442 13.5575 23.2422 16.9995 23.2422C20.4415 23.2422 23.2417 20.442 23.2417 17C23.2417 13.558 20.4415 10.7578 16.9995 10.7578ZM16.9995 21.9141C14.2899 21.9141 12.0854 19.7096 12.0854 17C12.0854 14.2904 14.2899 12.0859 16.9995 12.0859C19.7091 12.0859 21.9136 14.2904 21.9136 17C21.9136 19.7096 19.7091 21.9141 16.9995 21.9141Z" fill="black"/>
<path d="M33.9735 0.480231C33.872 0.127813 33.504 -0.07519 33.1515 0.0260129L29.7684 1.00099C29.4493 1.0494 29.2047 1.32492 29.2047 1.65754V6.38115C28.8914 6.1877 28.5373 6.05436 28.1584 5.99765C26.7483 4.56666 25.1043 3.43437 23.2671 2.63192C21.2866 1.76685 19.1779 1.32817 16.9996 1.32817C12.8135 1.32817 8.8779 2.95831 5.91792 5.91836C2.95793 8.87835 1.32773 12.8139 1.32773 17C1.32773 19.0166 1.70332 20.9696 2.44355 22.8169C1.971 23.0076 1.52827 23.2938 1.14577 23.6762C-0.379972 25.202 -0.379972 27.6846 1.14577 29.2104L5.74081 33.8055C5.8705 33.9351 6.04044 34 6.21037 34C6.3803 34 6.5503 33.9351 6.67993 33.8055L9.64383 30.8416C11.8975 32.0404 14.4295 32.6719 16.9996 32.6719C20.0995 32.6719 23.0968 31.7682 25.6676 30.0585C25.973 29.8554 26.056 29.4432 25.8528 29.1378C25.6498 28.8324 25.2375 28.7495 24.9322 28.9526C22.58 30.517 19.8369 31.3438 16.9996 31.3438C14.7839 31.3438 12.5997 30.831 10.6304 29.8551L11.275 29.2105C12.8008 27.6847 12.8008 25.2021 11.275 23.6763C9.8973 22.2987 7.73957 22.1649 6.21044 23.2752C5.48601 22.7491 4.62041 22.5029 3.76357 22.5353C3.02885 20.783 2.65592 18.9235 2.65592 17.0001C2.65592 9.09091 9.09047 2.65636 16.9996 2.65636C20.5512 2.65636 23.8832 3.92737 26.5054 6.25776C25.5874 6.71477 24.9548 7.66258 24.9548 8.75576C24.9548 10.2937 26.206 11.5448 27.7439 11.5448C28.5772 11.5448 29.3258 11.177 29.8373 10.5957C30.8255 12.5749 31.3434 14.7661 31.3434 17.0001C31.3434 19.8375 30.5165 22.5805 28.9521 24.9326C28.749 25.238 28.8319 25.6503 29.1373 25.8533C29.2504 25.9285 29.3781 25.9645 29.5045 25.9645C29.7193 25.9645 29.9302 25.8604 30.0581 25.6681C31.7678 23.0974 32.6715 20.1 32.6715 17.0001C32.6715 14.2005 31.9267 11.4618 30.5156 9.06322C30.5268 8.96222 30.5329 8.85975 30.5329 8.75583V2.16303L33.5194 1.30234C33.8717 1.2006 34.075 0.832648 33.9735 0.480231ZM6.67986 24.6154C7.68784 23.6075 9.32787 23.6076 10.3358 24.6154C11.3437 25.6233 11.3437 27.2633 10.3358 28.2713L6.2103 32.3968L2.08482 28.2713C1.07691 27.2633 1.07691 25.6233 2.08482 24.6154C2.58878 24.1114 3.25085 23.8594 3.91278 23.8594C4.57472 23.8594 5.23679 24.1114 5.74075 24.6154C6.00013 24.8746 6.42055 24.8746 6.67986 24.6154ZM27.7437 10.2167C26.9382 10.2167 26.2828 9.56133 26.2828 8.75576C26.2828 7.95019 26.9382 7.29483 27.7437 7.29483C28.5493 7.29483 29.2047 7.95019 29.2047 8.75576C29.2047 9.56133 28.5493 10.2167 27.7437 10.2167Z" fill="black"/>
<path d="M16.9995 29.5287C23.9078 29.5287 29.5282 23.9083 29.5282 17C29.5282 16.6333 29.2309 16.3359 28.8641 16.3359C28.4974 16.3359 28.2001 16.6333 28.2001 17C28.2001 23.176 23.1755 28.2005 16.9995 28.2005C16.6328 28.2005 16.3354 28.4979 16.3354 28.8646C16.3354 29.2313 16.6328 29.5287 16.9995 29.5287Z" fill="black"/>
<path d="M16.3354 25.7213C16.3354 26.088 16.6327 26.3854 16.9995 26.3854C22.1747 26.3854 26.3849 22.1752 26.3849 17C26.3849 16.6333 26.0876 16.3359 25.7208 16.3359C25.3541 16.3359 25.0568 16.6333 25.0568 17C25.0568 21.4428 21.4423 25.0573 16.9995 25.0573C16.6327 25.0573 16.3354 25.3546 16.3354 25.7213Z" fill="black"/>
<path d="M27.6118 26.9484C27.4372 26.9484 27.2658 27.0188 27.1417 27.1423C27.0181 27.2664 26.9478 27.4371 26.9478 27.6124C26.9478 27.7871 27.0181 27.9584 27.1417 28.0819C27.2658 28.2054 27.4365 28.2765 27.6118 28.2765C27.7865 28.2765 27.9578 28.2055 28.0813 28.0819C28.2048 27.9583 28.2759 27.7871 28.2759 27.6124C28.2759 27.4371 28.2048 27.2664 28.0813 27.1423C27.9578 27.0188 27.7865 26.9484 27.6118 26.9484Z" fill="black"/>
</g>
<defs>
<clipPath id="clip0">
<rect width="34" height="34" fill="white"/>
</clipPath>
</defs>
</svg>
