<svg width="34" height="34" viewBox="0 0 34 34" fill="none" xmlns="http://www.w3.org/2000/svg">
<g clip-path="url(#clip0)">
<path d="M16.999 13.9453C15.3147 13.9453 13.9443 15.3157 13.9443 17C13.9443 18.6843 15.3147 20.0547 16.999 20.0547C18.6833 20.0547 20.0537 18.6843 20.0537 17C20.0537 15.3157 18.6834 13.9453 16.999 13.9453ZM16.999 18.7266C16.047 18.7266 15.2725 17.9521 15.2725 17C15.2725 16.0479 16.047 15.2734 16.999 15.2734C17.951 15.2734 18.7256 16.0479 18.7256 17C18.7256 17.9521 17.9511 18.7266 16.999 18.7266Z" fill="white"/>
<path d="M16.999 10.7578C13.5571 10.7578 10.7568 13.558 10.7568 17C10.7568 20.442 13.5571 23.2422 16.999 23.2422C20.441 23.2422 23.2412 20.442 23.2412 17C23.2412 13.558 20.441 10.7578 16.999 10.7578ZM16.999 21.9141C14.2894 21.9141 12.085 19.7096 12.085 17C12.085 14.2904 14.2894 12.0859 16.999 12.0859C19.7087 12.0859 21.9131 14.2904 21.9131 17C21.9131 19.7096 19.7087 21.9141 16.999 21.9141Z" fill="white"/>
<path d="M33.9733 0.480231C33.8717 0.127813 33.5038 -0.07519 33.1513 0.0260129L29.7682 1.00099C29.449 1.0494 29.2044 1.32492 29.2044 1.65754V6.38115C28.8911 6.1877 28.5371 6.05436 28.1581 5.99765C26.748 4.56666 25.1041 3.43437 23.2669 2.63192C21.2864 1.76685 19.1776 1.32817 16.9993 1.32817C12.8132 1.32817 8.87766 2.95831 5.91767 5.91836C2.95769 8.87835 1.32748 12.8139 1.32748 17C1.32748 19.0166 1.70308 20.9696 2.44331 22.8169C1.97076 23.0076 1.52803 23.2938 1.14553 23.6762C-0.380216 25.202 -0.380216 27.6846 1.14553 29.2104L5.74057 33.8055C5.87026 33.9351 6.04019 34 6.21013 34C6.38006 34 6.55006 33.9351 6.67968 33.8055L9.64359 30.8416C11.8972 32.0404 14.4293 32.6719 16.9993 32.6719C20.0992 32.6719 23.0965 31.7682 25.6674 30.0585C25.9728 29.8554 26.0557 29.4432 25.8526 29.1378C25.6495 28.8324 25.2373 28.7495 24.9319 28.9526C22.5798 30.517 19.8367 31.3438 16.9993 31.3438C14.7837 31.3438 12.5995 30.831 10.6302 29.8551L11.2748 29.2105C12.8005 27.6847 12.8005 25.2021 11.2748 23.6763C9.89706 22.2987 7.73933 22.1649 6.21019 23.2752C5.48577 22.7491 4.62016 22.5029 3.76333 22.5353C3.02861 20.783 2.65567 18.9235 2.65567 17.0001C2.65567 9.09091 9.09022 2.65636 16.9994 2.65636C20.5509 2.65636 23.883 3.92737 26.5052 6.25776C25.5872 6.71477 24.9546 7.66258 24.9546 8.75576C24.9546 10.2937 26.2057 11.5448 27.7436 11.5448C28.577 11.5448 29.3256 11.177 29.8371 10.5957C30.8252 12.5749 31.3431 14.7661 31.3431 17.0001C31.3431 19.8375 30.5162 22.5805 28.9519 24.9326C28.7488 25.238 28.8317 25.6503 29.1371 25.8533C29.2502 25.9285 29.3779 25.9645 29.5043 25.9645C29.7191 25.9645 29.9299 25.8604 30.0578 25.6681C31.7676 23.0974 32.6712 20.1 32.6712 17.0001C32.6712 14.2005 31.9264 11.4618 30.5154 9.06322C30.5265 8.96222 30.5327 8.85975 30.5327 8.75583V2.16303L33.5192 1.30234C33.8715 1.2006 34.0748 0.832648 33.9733 0.480231ZM6.67962 24.6154C7.68759 23.6075 9.32763 23.6076 10.3355 24.6154C11.3434 25.6233 11.3434 27.2633 10.3355 28.2713L6.21006 32.3968L2.08458 28.2713C1.07667 27.2633 1.07667 25.6233 2.08458 24.6154C2.58854 24.1114 3.2506 23.8594 3.91254 23.8594C4.57448 23.8594 5.23655 24.1114 5.7405 24.6154C5.99988 24.8746 6.4203 24.8746 6.67962 24.6154ZM27.7435 10.2167C26.9379 10.2167 26.2826 9.56133 26.2826 8.75576C26.2826 7.95019 26.9379 7.29483 27.7435 7.29483C28.5491 7.29483 29.2044 7.95019 29.2044 8.75576C29.2044 9.56133 28.5491 10.2167 27.7435 10.2167Z" fill="white"/>
<path d="M16.999 29.5287C23.9073 29.5287 29.5277 23.9083 29.5277 17C29.5277 16.6333 29.2304 16.3359 28.8636 16.3359C28.4969 16.3359 28.1996 16.6333 28.1996 17C28.1996 23.176 23.175 28.2005 16.999 28.2005C16.6323 28.2005 16.335 28.4979 16.335 28.8646C16.335 29.2313 16.6323 29.5287 16.999 29.5287Z" fill="white"/>
<path d="M16.335 25.7213C16.335 26.088 16.6323 26.3854 16.999 26.3854C22.1742 26.3854 26.3844 22.1752 26.3844 17C26.3844 16.6333 26.0871 16.3359 25.7203 16.3359C25.3536 16.3359 25.0563 16.6333 25.0563 17C25.0563 21.4428 21.4418 25.0573 16.999 25.0573C16.6323 25.0573 16.335 25.3546 16.335 25.7213Z" fill="white"/>
<path d="M27.6113 26.9484C27.4367 26.9484 27.2654 27.0188 27.1412 27.1423C27.0177 27.2664 26.9473 27.4371 26.9473 27.6124C26.9473 27.7871 27.0177 27.9584 27.1412 28.0819C27.2654 28.2054 27.436 28.2765 27.6113 28.2765C27.786 28.2765 27.9573 28.2055 28.0808 28.0819C28.2043 27.9583 28.2754 27.7871 28.2754 27.6124C28.2754 27.4371 28.2043 27.2664 28.0808 27.1423C27.9573 27.0188 27.786 26.9484 27.6113 26.9484Z" fill="white"/>
</g>
<defs>
<clipPath id="clip0">
<rect width="34" height="34" fill="white"/>
</clipPath>
</defs>
</svg>
