<svg width="44" height="44" viewBox="0 0 44 44" fill="none" xmlns="http://www.w3.org/2000/svg">
<path d="M40.8394 13.064L40.6096 12.8196H39.4466L39.7055 10.7049C39.7327 10.4365 39.6441 10.168 39.4637 9.96861C39.2826 9.76917 39.0243 9.65394 38.7545 9.65394H37.2116V7.43165C37.2116 6.91185 36.788 6.48829 36.2676 6.48829H34.6791V4.266C34.6791 3.7462 34.2555 3.32263 33.7351 3.32263H10.2972C9.77742 3.32263 9.35386 3.7462 9.35386 4.266V6.48829H7.7647C7.2449 6.48829 6.82133 6.91185 6.82133 7.43165V9.65394H5.27839C5.00868 9.65394 4.75036 9.76917 4.56929 9.96861C4.38884 10.168 4.30021 10.4365 4.32933 10.7189L4.58638 12.8196H3.71899C3.51576 12.8196 3.32455 12.9089 3.19349 13.064L2.99976 13.3236L6.77258 39.8239C6.85995 40.3184 7.28732 40.6773 7.78876 40.6773H36.2429C36.7437 40.6773 37.1717 40.3196 37.2629 39.8036L40.9895 13.6224C41.025 13.4223 40.9699 13.2191 40.8394 13.064ZM10.6201 4.58889H33.4128V6.48829H10.6201V4.58889ZM8.08759 7.75455H9.35386H34.6791H35.9453V9.65394H8.08759V7.75455ZM5.62915 10.9202H6.82133H37.2116H38.4032L38.1708 12.8196H5.86214L5.62915 10.9202ZM36.041 39.4111H7.99262L4.38695 14.0859H4.74213H39.2908H39.6454L36.041 39.4111Z" fill="black"/>
<path d="M21.6999 15.9852C14.543 15.9852 8.7207 20.8135 8.7207 26.7484C8.7207 32.6834 14.543 37.5117 21.6999 37.5117C28.8568 37.5117 34.6791 32.6834 34.6791 26.7484C34.6791 20.8135 28.8568 15.9852 21.6999 15.9852ZM21.6999 36.2454C15.2413 36.2454 9.98696 31.9851 9.98696 26.7484C9.98696 21.5118 15.2413 17.2515 21.6999 17.2515C28.1584 17.2515 33.4128 21.5118 33.4128 26.7484C33.4128 31.9851 28.1584 36.2454 21.6999 36.2454Z" fill="black"/>
<path d="M22.3329 19.1123C22.3329 18.7621 22.0499 18.4791 21.6998 18.4791C19.1717 18.4791 16.7753 19.2452 14.7695 20.6945C14.4865 20.899 14.4225 21.2947 14.627 21.5783C14.7505 21.7499 14.9442 21.8404 15.1412 21.8404C15.2697 21.8404 15.3988 21.8012 15.5115 21.7208C17.2995 20.4285 19.4395 19.7454 21.6998 19.7454C22.0499 19.7454 22.3329 19.4624 22.3329 19.1123Z" fill="black"/>
<path d="M22.3331 21.4871C22.3331 21.137 22.0501 20.854 21.7 20.854C19.7341 20.854 17.8702 21.4498 16.3108 22.578C16.0278 22.7832 15.9638 23.1789 16.1683 23.4619C16.2924 23.6334 16.4855 23.724 16.6824 23.724C16.8109 23.724 16.9407 23.6847 17.0528 23.6043C18.395 22.6337 20.0019 22.1203 21.7 22.1203C22.0501 22.1203 22.3331 21.8373 22.3331 21.4871Z" fill="black"/>
<path d="M22.3331 23.8614C22.3331 23.5113 22.05 23.2283 21.6999 23.2283C20.2887 23.2283 18.9528 23.6588 17.8353 24.4736C17.5529 24.6794 17.4902 25.0751 17.6966 25.3575C17.8201 25.5278 18.0132 25.6177 18.2088 25.6177C18.338 25.6177 18.4684 25.5778 18.5811 25.4961C19.4802 24.8409 20.559 24.4945 21.6999 24.4945C22.05 24.4945 22.3331 24.2115 22.3331 23.8614Z" fill="black"/>
<path d="M27.9451 31.8945C26.1572 33.1874 24.0172 33.8705 21.7569 33.8705C21.4068 33.8705 21.1238 34.1535 21.1238 34.5037C21.1238 34.8538 21.4068 35.1368 21.7569 35.1368C24.2856 35.1368 26.682 34.3707 28.6872 32.9208C28.9702 32.7157 29.0341 32.32 28.8296 32.037C28.6251 31.7527 28.2281 31.6894 27.9451 31.8945Z" fill="black"/>
<path d="M21.1238 32.1288C21.1238 32.479 21.4068 32.762 21.7569 32.762C23.7234 32.762 25.5874 32.1656 27.1461 31.0373C27.4298 30.8322 27.4931 30.4365 27.2886 30.1535C27.0828 29.8698 26.6871 29.8065 26.4047 30.011C25.0631 30.9822 23.4562 31.4957 21.7575 31.4957C21.4068 31.4957 21.1238 31.7787 21.1238 32.1288Z" fill="black"/>
<path d="M21.1238 29.754C21.1238 30.1041 21.4068 30.3871 21.7569 30.3871C23.1688 30.3871 24.5053 29.9566 25.6215 29.1417C25.9033 28.936 25.966 28.5396 25.7596 28.2572C25.5544 27.9761 25.1587 27.9128 24.8751 28.1192C23.9773 28.7745 22.8991 29.1208 21.7569 29.1208C21.4068 29.1208 21.1238 29.4038 21.1238 29.754Z" fill="black"/>
<path d="M21.9506 27.8077C22.7643 27.8077 23.4239 27.3289 23.4239 26.7383C23.4239 26.1477 22.7643 25.6689 21.9506 25.6689C21.1369 25.6689 20.4773 26.1477 20.4773 26.7383C20.4773 27.3289 21.1369 27.8077 21.9506 27.8077Z" fill="black"/>
</svg>
