<svg width="38" height="38" viewBox="0 0 38 38" fill="none" xmlns="http://www.w3.org/2000/svg">
<path d="M19 0C8.50819 0 0 8.50819 0 19C0 29.4918 8.50819 38 19 38C29.4918 38 38 29.4918 38 19C38 8.50819 29.4918 0 19 0ZM19.4027 30.0624C19.4024 30.0624 19.403 30.0624 19.4027 30.0624H19.3981C17.4948 30.0615 15.6245 29.5843 13.9636 28.6786L7.93532 30.2595L9.54871 24.3684C8.55342 22.6445 8.02983 20.6888 8.0307 18.6852C8.03331 12.4171 13.1347 7.31779 19.4027 7.31779C22.4445 7.31895 25.2999 8.50298 27.4467 10.6516C29.5939 12.8004 30.7756 15.6567 30.7744 18.6941C30.7718 24.9624 25.6698 30.0624 19.4027 30.0624Z" fill="white"/>
<path d="M19.4065 9.23798C14.1929 9.23798 9.95285 13.4763 9.95053 18.6861C9.94995 20.4714 10.4498 22.21 11.3958 23.7144L11.6205 24.0719L10.6655 27.5587L14.2428 26.6205L14.588 26.8252C16.0391 27.6863 17.7026 28.1417 19.3986 28.1423H19.4024C24.6119 28.1423 28.852 23.9037 28.8543 18.6936C28.8552 16.1687 27.8729 13.7949 26.0885 12.009C24.304 10.2231 21.9308 9.23885 19.4065 9.23798ZM24.9659 22.7484C24.7291 23.4117 23.594 24.0174 23.0481 24.0991C22.5584 24.1722 21.9392 24.2026 21.2585 23.9866C20.8456 23.8556 20.3165 23.6808 19.6384 23.3882C16.7882 22.1578 14.9267 19.2888 14.7846 19.0992C14.6425 18.9096 13.6244 17.5589 13.6244 16.1606C13.6244 14.7626 14.3584 14.0752 14.6188 13.7911C14.8794 13.5067 15.1873 13.4357 15.3766 13.4357C15.5659 13.4357 15.7555 13.4374 15.9211 13.4455C16.0956 13.4542 16.3299 13.3792 16.5604 13.9332C16.7972 14.502 17.3655 15.9 17.4365 16.042C17.5075 16.1844 17.5548 16.3502 17.4603 16.5398C17.3655 16.7294 17.0506 17.1385 16.75 17.5113C16.6238 17.6676 16.4595 17.8068 16.6253 18.0912C16.7908 18.3753 17.3614 19.3056 18.2059 20.0588C19.2914 21.0266 20.2069 21.3264 20.491 21.4687C20.7749 21.6108 20.9407 21.587 21.1065 21.3977C21.2721 21.2081 21.8168 20.5682 22.0062 20.2838C22.1955 19.9994 22.3851 20.047 22.6454 20.1418C22.9061 20.2363 24.3029 20.9237 24.587 21.0657C24.8711 21.2081 25.0604 21.2791 25.1315 21.3977C25.2028 21.5163 25.2028 22.0848 24.9659 22.7484Z" fill="white"/>
</svg>
