<svg width="57" height="57" viewBox="0 0 57 57" fill="none" xmlns="http://www.w3.org/2000/svg">
<circle cx="28.5" cy="28.5" r="28.5" fill="black"/>
<path d="M31.9429 29.673C31.9737 29.7223 32.0697 29.7715 32.2157 29.7715C32.6422 29.7715 33.253 29.4105 33.4874 28.8732C33.5681 28.6846 33.6142 28.5164 33.6372 28.3605C32.8074 28.7379 32.0966 29.1275 31.9468 29.5541C31.916 29.632 31.9352 29.6607 31.9429 29.673ZM46.2695 39H50L46.3156 28.6846C46.7305 28.377 47.1647 28.0078 47.6487 27.4951L47.8793 27.249L47.4221 26.7568L47.1915 27.0029C46.3386 27.9094 45.6548 28.3359 44.9517 28.7789C44.1372 29.2916 43.2882 29.5418 42.5082 29.5418C42.1586 29.5418 41.9204 29.4475 41.8013 29.2629C41.6515 29.0291 41.6669 28.6148 41.8436 28.1227C42.1048 27.3926 42.5351 26.9988 42.8771 26.8594L43.5187 28.6641C43.9643 28.541 44.41 28.3318 44.8749 28.0447C45.1861 27.8479 45.5011 27.6141 45.8315 27.3352L42.5006 18H34.5862L31.0823 27.8068C32.0467 27.0645 32.9341 26.0063 33.5527 24.9932L34.1328 25.2885C33.8793 26.1334 34.006 26.6461 34.1444 27.1834C34.1597 27.2449 34.1751 27.3064 34.1905 27.368C34.1943 27.368 34.1981 27.3639 34.1981 27.3639C35.4967 26.8102 36.9682 26.1785 37.4907 25.2639L38.0631 25.5879C37.4484 27.0604 37.4062 27.8807 37.5714 28.1555C37.6098 28.217 37.6789 28.2908 37.8787 28.2908C38.2322 28.2908 38.5587 28.2293 38.8661 28.1227L41.0982 21.8432L42.4314 25.5961C42.6773 25.4771 42.9232 25.4033 43.1844 25.4033C43.584 25.4033 43.8683 25.5305 44.0296 25.7848C44.1833 26.0268 44.2371 26.441 44.1103 26.802C43.8568 26.7117 43.5033 26.5518 43.5033 26.5518C43.5993 26.2852 43.5263 26.1006 43.1883 26.1006C42.758 26.1006 42.2777 26.2893 41.0637 27.3721C39.7228 28.5697 38.7854 28.9881 37.8825 28.9881C37.4061 28.9881 37.1564 28.742 37.0335 28.5369C36.7991 28.1473 36.7838 27.5443 36.9874 26.7281C36.2651 27.2367 35.343 27.6305 34.4402 28.016C34.3941 28.0365 34.3441 28.057 34.298 28.0775C34.3096 28.4016 34.2558 28.7543 34.0752 29.1727C33.7602 29.9027 32.9457 30.4729 32.2157 30.4729C31.8699 30.4729 31.5741 30.3293 31.4127 30.075C31.2706 29.8576 31.2437 29.5869 31.3397 29.3162C31.5895 28.5943 32.4808 28.1186 33.5834 27.6346C33.5642 27.5484 33.5412 27.4623 33.5181 27.368C33.4528 27.1014 33.376 26.802 33.3529 26.4533C31.4588 28.8938 29.7069 29.5418 28.6888 29.5418C28.3546 29.5418 28.2777 29.4023 28.247 29.349C27.9742 28.865 28.4276 27.4869 28.8386 26.6666L28.2969 26.2893C27.5285 27.3516 26.0033 29.0332 25.1888 29.0332C25.0659 29.0332 25.0082 29.0045 25.0006 28.9881C24.9967 28.9758 24.8891 28.7133 25.427 27.7453C25.719 27.2203 26.0494 26.765 26.0801 26.7199L26.084 26.7158L25.573 26.2852C25.573 26.2852 25.573 26.2852 25.5692 26.2893C25.5346 26.3385 24.9314 27.1465 24.1131 27.9463C23.0373 28.9922 22.073 29.5418 21.3238 29.5418C21.2316 29.5418 21.1125 29.5295 21.0626 29.4639C20.9396 29.308 21.0318 28.7871 21.0971 28.4098C21.197 27.8438 21.2892 27.2695 21.0165 26.9209C20.9243 26.7979 20.7437 26.6543 20.4248 26.6543C20.0291 26.6543 19.3798 26.9906 18.4846 27.9709C17.8584 28.6559 17.3935 29.3449 17.3897 29.3531L16.8403 28.984C16.8441 28.9758 17.1822 28.2949 17.455 27.5197C17.9276 26.1785 17.7892 25.7602 17.7355 25.6617C17.7162 25.6289 17.6778 25.5592 17.5049 25.5592C16.7519 25.5592 15.803 26.199 14.758 27.409C13.9358 28.3605 13.3557 29.3244 13.348 29.3367L12.7717 29.025L14.101 25.3131L14.708 25.5633L14.1663 27.0768C14.2009 27.0357 14.2393 26.9906 14.2739 26.9496C15.4649 25.5715 16.5483 24.8701 17.5049 24.8701C17.9544 24.8701 18.1811 25.108 18.2925 25.309C18.5154 25.7109 18.4962 26.3549 18.2234 27.2736C19.0686 26.4 19.8101 25.957 20.4287 25.957C20.4632 25.957 20.4978 25.9611 20.5285 25.9611C22.0307 21.7365 23.3677 18 23.3677 18H14.5313C14.5313 18 15.2766 18.5537 14.5313 20.625C13.736 22.8316 8 39 8 39H26.6103L29.1959 31.7402C29.1959 31.7402 23.0796 37.6875 16.337 37.6875C16.6021 36.9369 18.2503 32.3186 19.8831 27.7453C20.0214 27.4459 20.152 27.3516 20.4171 27.3516C20.6169 27.3516 20.5285 27.8355 20.4517 28.2826C20.348 28.8814 20.2404 29.5008 20.5554 29.9068C20.7245 30.1242 20.978 30.235 21.3123 30.235C22.3496 30.235 23.4638 29.4557 24.3513 28.6313C24.3052 28.8938 24.3244 29.107 24.4051 29.2875C24.4934 29.4885 24.7009 29.7264 25.1773 29.7264C25.8035 29.7264 26.5873 29.2219 27.567 28.1883C27.5785 28.176 27.59 28.1637 27.6054 28.1473C27.4555 28.824 27.4824 29.3449 27.6822 29.7059C27.8167 29.9479 28.101 30.2391 28.6811 30.2391C29.2228 30.2391 29.7991 30.116 30.337 29.8863L27.0867 39H35.927C35.927 39 35.1778 38.4463 35.927 36.375C36.1306 35.809 37.3332 32.4375 37.3332 32.4375H44.8633C44.8633 32.4375 46.0659 35.809 46.2695 36.375C47.0148 38.4463 46.2695 39 46.2695 39ZM38.4012 25.0055L37.8364 24.665L38.4665 23.4551L39.0313 23.7955L38.4012 25.0055ZM37.798 31.125L38.3205 29.6566C39.477 29.5213 40.3798 28.865 41.1328 28.2047C40.9868 28.7871 41.0291 29.2793 41.2673 29.6484C41.4363 29.915 41.7898 30.2309 42.5082 30.2309C42.9885 30.2309 43.4918 30.1488 43.9912 29.9848L44.3946 31.1209H37.798V31.125Z" fill="white"/>
</svg>
